<svg width="1217" height="1001" viewBox="0 0 1217 1001" fill="none" xmlns="http://www.w3.org/2000/svg">
<path d="M1168.63 -140.643C1193.52 -145.974 1217 -126.992 1217 -101.529V649C1217 708.409 1193.38 765.384 1151.34 807.392C1109.3 849.4 1052.27 873 992.816 873C933.359 873 876.336 849.4 834.294 807.392C792.251 765.384 768.632 708.409 768.632 649C768.632 589.591 792.251 532.616 834.294 490.608C876.336 448.6 933.359 425 992.816 425C1004.8 425 1016.55 425.921 1027.99 427.711C1057.2 432.282 1088.89 412.277 1088.89 382.703V120.489C1088.89 95.046 1065.45 76.0688 1040.57 81.3651L480.042 200.659C461.573 204.59 448.368 220.9 448.368 239.783V777C448.368 836.409 424.749 893.384 382.706 935.392C340.664 977.4 283.642 1001 224.184 1001C164.727 1001 107.705 977.4 65.662 935.392C23.6193 893.384 0 836.409 0 777C0 717.591 23.6193 660.616 65.662 618.608C107.705 576.6 164.727 553 224.184 553C236.165 553 247.915 553.921 259.354 555.711C288.573 560.282 320.263 540.277 320.263 510.703V73.3422C320.263 54.4781 333.443 38.1781 351.889 34.2287L1168.63 -140.643Z" fill="#F1EFFF"/>
</svg>
